<svg width="14" height="14" viewBox="0 0 14 14" fill="none" xmlns="http://www.w3.org/2000/svg">
<g id="Linear / Time / Calendar">
<g clip-path="url(#clip0_5415_67778)">
<path id="Vector" d="M1.16669 7C1.16669 4.80011 1.16669 3.70017 1.8501 3.01675C2.53352 2.33334 3.63347 2.33334 5.83335 2.33334H8.16669C10.3666 2.33334 11.4665 2.33334 12.1499 3.01675C12.8334 3.70017 12.8334 4.80011 12.8334 7V8.16667C12.8334 10.3666 12.8334 11.4665 12.1499 12.1499C11.4665 12.8333 10.3666 12.8333 8.16669 12.8333H5.83335C3.63347 12.8333 2.53352 12.8333 1.8501 12.1499C1.16669 11.4665 1.16669 10.3666 1.16669 8.16667V7Z" stroke="#202020"/>
<path id="Vector_2" d="M4.08331 2.33334V1.45834" stroke="#202020" stroke-linecap="round"/>
<path id="Vector_3" d="M9.91669 2.33334V1.45834" stroke="#202020" stroke-linecap="round"/>
<path id="Vector_4" d="M1.45831 5.25H12.5416" stroke="#202020" stroke-linecap="round"/>
<g id="Vector_5">
<path d="M10.5 9.91667C10.5 10.2388 10.2388 10.5 9.91665 10.5C9.59448 10.5 9.33331 10.2388 9.33331 9.91667C9.33331 9.5945 9.59448 9.33333 9.91665 9.33333C10.2388 9.33333 10.5 9.5945 10.5 9.91667Z" fill="#202020"/>
<path d="M10.5 7.58333C10.5 7.9055 10.2388 8.16667 9.91665 8.16667C9.59448 8.16667 9.33331 7.9055 9.33331 7.58333C9.33331 7.26117 9.59448 7 9.91665 7C10.2388 7 10.5 7.26117 10.5 7.58333Z" fill="#202020"/>
</g>
<g id="Vector_6">
<path d="M7.58335 9.91667C7.58335 10.2388 7.32219 10.5 7.00002 10.5C6.67785 10.5 6.41669 10.2388 6.41669 9.91667C6.41669 9.5945 6.67785 9.33333 7.00002 9.33333C7.32219 9.33333 7.58335 9.5945 7.58335 9.91667Z" fill="#202020"/>
<path d="M7.58335 7.58333C7.58335 7.9055 7.32219 8.16667 7.00002 8.16667C6.67785 8.16667 6.41669 7.9055 6.41669 7.58333C6.41669 7.26117 6.67785 7 7.00002 7C7.32219 7 7.58335 7.26117 7.58335 7.58333Z" fill="#202020"/>
</g>
<g id="Vector_7">
<path d="M4.66667 9.91667C4.66667 10.2388 4.4055 10.5 4.08333 10.5C3.76117 10.5 3.5 10.2388 3.5 9.91667C3.5 9.5945 3.76117 9.33333 4.08333 9.33333C4.4055 9.33333 4.66667 9.5945 4.66667 9.91667Z" fill="#202020"/>
<path d="M4.66667 7.58333C4.66667 7.9055 4.4055 8.16667 4.08333 8.16667C3.76117 8.16667 3.5 7.9055 3.5 7.58333C3.5 7.26117 3.76117 7 4.08333 7C4.4055 7 4.66667 7.26117 4.66667 7.58333Z" fill="#202020"/>
</g>
</g>
</g>
<defs>
<clipPath id="clip0_5415_67778">
<rect width="14" height="14" rx="5" fill="white"/>
</clipPath>
</defs>
</svg>
